Restitution 2011 DVDRiP AC3 XViD-SIC

General
Complete name : Restitution.2011.DVDRip.XviD.AC3-SiC.avi
Format : AVI
Format/Info : Audio Video Interleave
File size : 1.37 GiB
Duration : 1h 40mn
Overall bit rate : 1 944 Kbps
VideoID : 0
Format : MPEG-4 Visual
Format profile : Advanced Simple@L5
Format settings, BVOP : Yes
Format settings, QPel : No
Format settings, GMC : No warppoints
Format settings, Matrix : Default (MPEG)
Muxing mode : Packed bitstream
Codec ID : XVID
Codec ID/Hint : XviD
Duration : 1h 40mn
Bit rate : 1 552 Kbps
Width : 720 pixels
Height : 384 pixels
Display aspect ratio : 1.875
Frame rate : 23.976 fps
Color space : YUV
Chroma subsampling : 4:2:0
Bit depth : 8 bits
Scan type : Progressive
Bits/(Pixel*Frame) : 0.234
Stream size : 1.09 GiB (80%)
Writing library : XviD 64
Audio
ID : 1
Format : AC-3
Format/Info : Audio Coding 3
Mode extension : CM (complete main)
Codec ID : 2000
Duration : 1h 40mn
Bit rate mode : Constant
Bit rate : 384 Kbps
Channel(s) : 6 channels
Channel positions : Front: L C R, Side: L R, LFE
Sampling rate : 48.0 KHz
Bit depth : 16 bits
Stream size : 277 MiB (20%)
Alignment : Aligned on interleaves
interleave, duration : 64 ms (1.53 video frames)
Interleave, preload duration : 192
Title : Restitution T80 3_2ch 384Kbps DELAY 0ms

 
http://www.imdb.com/title/tt1452599/


Poster:

 
http://i.imgur.com/SpfyW.jpg


Screenshots:

 
http://i.imgur.com/0UmHR.jpg


ENJOY!